<?xml version="1.0" encoding="utf-8"?>
<svg viewBox="0 0 88 88" xmlns="http://www.w3.org/2000/svg">
    <g fill="none" fill-rule="evenodd">
        <path d="M44 88c43.66 0 44-19.7 44-44S87.66 0 44 0 0 19.7 0 44s.34 44 44 44z" fill="#FB8332"/>
        <path d="M60 54.523v17.591a2 2 0 0 1-2.702 1.873L44 69l-13.298 4.987A2 2 0 0 1 28 72.114V54.523A22.924 22.924 0 0 0 44 61c6.218 0 11.86-2.468 16-6.477z"
              fill="#C85000"/>
        <path d="M41.847 62.225l-1.564.501a5.758 5.758 0 0 1-6.207-1.837l-1.047-1.274a7.105 7.105 0 0 0-3.622-2.346l-1.585-.43a5.817 5.817 0 0 1-4.236-4.928l-.198-1.642A7.192 7.192 0 0 0 21.6 46.32l-1.102-1.226a5.867 5.867 0 0 1-.921-6.453l.715-1.49a7.217 7.217 0 0 0 .612-4.295l-.269-1.632a5.848 5.848 0 0 1 2.687-5.93l1.4-.864a7.15 7.15 0 0 0 2.82-3.28l.649-1.52a5.783 5.783 0 0 1 5.441-3.524l1.642.037a7.07 7.07 0 0 0 4.13-1.223l1.362-.925a5.748 5.748 0 0 1 6.468 0l1.361.925a7.07 7.07 0 0 0 4.131 1.223l1.642-.037a5.783 5.783 0 0 1 5.441 3.525l.65 1.52a7.15 7.15 0 0 0 2.819 3.28l1.4.863a5.848 5.848 0 0 1 2.687 5.93l-.27 1.632a7.217 7.217 0 0 0 .613 4.295l.715 1.49a5.867 5.867 0 0 1-.92 6.453L66.4 46.321a7.192 7.192 0 0 0-1.788 3.948l-.198 1.642a5.817 5.817 0 0 1-4.236 4.927l-1.585.431a7.105 7.105 0 0 0-3.622 2.346l-1.047 1.274a5.758 5.758 0 0 1-6.207 1.837l-1.564-.5a7.057 7.057 0 0 0-4.306 0zm8.537-41.06A17.962 17.962 0 0 0 44 20c-9.941 0-18 8.059-18 18s8.059 18 18 18 18-8.059 18-18c0-2.201-.396-4.35-1.16-6.368a1.5 1.5 0 0 0-2.805 1.061c.635 1.68.965 3.47.965 5.307 0 8.284-6.716 15-15 15-8.284 0-15-6.716-15-15 0-8.284 6.716-15 15-15 1.842 0 3.636.331 5.32.97a1.5 1.5 0 1 0 1.064-2.805zm7.113 4.925a18.101 18.101 0 0 0-1.562-1.565 1.5 1.5 0 1 0-1.99 2.245 15.101 15.101 0 0 1 1.303 1.306 1.5 1.5 0 1 0 2.249-1.986z"
              fill="#FFF"/>
    </g>
</svg>