<?xml version="1.0" encoding="utf-8"?>
<svg version="1.1" xmlns="http://www.w3.org/2000/svg" xmlns:xlink="http://www.w3.org/1999/xlink" x="0px" y="0px"
	 viewBox="0 0 48 48" style="enable-background:new 0 0 48 48;" xml:space="preserve">
<style type="text/css">
	.st0{fill:#4E2BCC;}
	.st1{fill:#FFFFFF;}
</style>
<path class="st0" d="M24,48c23.8,0,24-10.7,24-24S47.8,0,24,0S0,10.7,0,24S0.2,48,24,48z"/>
<path class="st1" d="M36.8,10.4H32v-2c0-0.7-0.5-1.2-1.2-1.2c-0.7,0-1.2,0.5-1.2,1.2v2H18.8v-2c0-0.7-0.5-1.2-1.2-1.2
	c-0.7,0-1.2,0.5-1.2,1.2v2h-5.2c-0.7,0-1.2,0.5-1.2,1.2v25.9c0,0.7,0.5,1.2,1.2,1.2h25.6c0.7,0,1.2-0.5,1.2-1.2V11.6
	C38,11,37.4,10.4,36.8,10.4z M25.8,33.9h-1.7V22.8h0L21.8,24l-0.3-1.3l2.8-1.5h1.5L25.8,33.9L25.8,33.9z M35.6,17H12.4v-4.2h4V14
	c0,0.7,0.5,1.2,1.2,1.2c0.7,0,1.2-0.5,1.2-1.2v-1.2h10.8V14c0,0.7,0.5,1.2,1.2,1.2c0.7,0,1.2-0.5,1.2-1.2v-1.2h3.6L35.6,17L35.6,17z
	"/>
</svg>
