<?xml version="1.0" encoding="utf-8"?>
<svg version="1.1" id="Layer_1" xmlns="http://www.w3.org/2000/svg" xmlns:xlink="http://www.w3.org/1999/xlink" x="0px" y="0px"
	 viewBox="0 0 48 48" style="enable-background:new 0 0 48 48;" xml:space="preserve">
<style type="text/css">
	.st0{fill:#33A7FF;}
	.st1{display:none;}
	.st2{display:inline;fill:#0374CC;}
	.st3{display:inline;fill:#045C99;}
	.st4{display:inline;fill:#5A6271;}
	.st5{display:inline;fill:#8C93A1;}
	.st6{display:inline;opacity:0.5;fill:#8C93A1;}
	.st7{fill:none;stroke:#0374CC;stroke-width:2;stroke-miterlimit:10;}
	.st8{fill:none;stroke:#FFFFFF;stroke-width:2;stroke-miterlimit:10;}
</style>
<path class="st0" d="M24,48c23.8,0,24-10.7,24-24S47.8,0,24,0S0,10.7,0,24S0.2,48,24,48z"/>
<g class="st1">
	<path class="st2" d="M36.5,40.1c0,1.4-1.1,2.5-2.5,2.5H14.3c-1.4,0-2.5-1.1-2.5-2.5V8c0-1.4,1.1-2.5,2.5-2.5h19.8
		c1.4,0,2.5,1.1,2.5,2.5V40.1z"/>
	<path class="st3" d="M34.1,42H14.3c-1.4,0-2.5-1.1-2.5-2.5v0.6c0,1.4,1.1,2.5,2.5,2.5h19.8c1.4,0,2.5-1.1,2.5-2.5v-0.6
		C36.5,40.9,35.4,42,34.1,42z"/>
	<path class="st4" d="M34.7,33.9c0,0.7-0.6,1.2-1.2,1.2H14.9c-0.7,0-1.2-0.6-1.2-1.2V8.6c0-0.7,0.6-1.2,1.2-1.2h18.6
		c0.7,0,1.2,0.6,1.2,1.2V33.9z"/>
	<path class="st5" d="M26,38.3c0,1-0.8,1.9-1.9,1.9c-1,0-1.9-0.8-1.9-1.9c0-1,0.8-1.9,1.9-1.9C25.2,36.4,26,37.2,26,38.3z"/>
	<path class="st6" d="M14.1,34.9L34.2,7.6c-0.2-0.2-0.5-0.3-0.8-0.3H14.9c-0.7,0-1.2,0.6-1.2,1.2v25.4
		C13.7,34.3,13.8,34.7,14.1,34.9z"/>
</g>
<g>
	<path class="st7" d="M22.4,25V12.8c0-1.3-0.7-2.2-2.4-2.2c-1.7,0-2.4,0.9-2.4,2.2v18.1"/>
	<path class="st7" d="M31.2,27v-4.4c0-1.9-0.4-3.1-2.1-3.2c-1.4-0.1-2.1,0.4-2.1,0.4"/>
	<path class="st7" d="M31.2,21.9c2.4-0.4,3.2,0.9,3.3,3.1c0.1,2.1,0.2,3.3,0.2,6c0,6.5-3.6,10.2-3.6,10.2"/>
	<path class="st7" d="M17.4,23.3c-0.3-0.1-1-0.2-1.5-0.2c-1.2,0-2.1,1-2.3,2.7c0,0-0.2,1.8-0.3,4.1c0,3,0.5,4.4,1.7,6.1
		c1.7,2.4,5.1,5.1,5.1,5.1"/>
	<path class="st7" d="M27.3,25.5v-4.1c0-1.9-0.5-3.5-2.4-3.5c-1.6,0-2.4,0.4-2.4,0.4"/>
	<path class="st8" d="M14.4,12.4c0-3.1,2.5-5.6,5.6-5.6s5.6,2.5,5.6,5.6"/>
</g>
</svg>
