<?xml version="1.0" encoding="utf-8"?>
<svg data-name="Layer 1" xmlns="http://www.w3.org/2000/svg" viewBox="0 0 48 48">
    <defs>
        <style>
            .cls-1{fill:#f8c332;}.cls-2{fill:#afafa9;}.cls-3{fill:#d9edec;}.cls-4{fill:#ebebe9;}.cls-5{fill:#494948;}.cls-6{fill:#333;}.cls-7{fill:#e64c3c;}.cls-8{fill:#940030;}.cls-9{fill:#271566;}
        </style>
    </defs>
    <title>Artboard 1</title>
    <path class="cls-1" d="M24,48c23.82,0,24-10.74,24-24S47.81,0,24,0,0,10.74,0,24,.19,48,24,48Z"/>
    <rect class="cls-2" x="19.9" y="23.61" width="8.21" height="8.21"/>
    <path class="cls-3"
          d="M33.79,30.18l-4.35-.87-.77-1.13A.53.53,0,0,0,28,28l-4,1.74L20,28a.53.53,0,0,0-.65.18l-.79,1.13-4.35.87a4.73,4.73,0,0,0-3.81,4.64v5.84a24.65,24.65,0,0,0,25.33,1.12c.64-.4,1.27-.8,1.87-1.2V34.82A4.73,4.73,0,0,0,33.79,30.18Z"/>
    <path class="cls-4"
          d="M32.8,15.26a9.89,9.89,0,0,0,.07-1.2A9.14,9.14,0,0,0,24,4.66a9.14,9.14,0,0,0-8.87,9.4,9.89,9.89,0,0,0,.07,1.2c-.87.22-1.27,1.55-.92,3s1.35,2.4,2.22,2.18l.22-.08c1.6,3.21,4.27,5.82,7.28,5.82s5.68-2.61,7.28-5.82l.23.08c.86.22,1.85-.75,2.21-2.18S33.67,15.48,32.8,15.26Z"/>
    <path class="cls-2"
          d="M28.3,34.1,24,29.82,19.7,34.1l-1.14-4.79-1.4.23,1.12,14.54a24.73,24.73,0,0,0,12.78-.36l-.22-14.18-1.4-.23Z"/>
    <path class="cls-5"
          d="M15,13.77a14.6,14.6,0,0,0,.58,2.93l.78,0a3.77,3.77,0,0,1,1.43-3C19.38,12.14,15,13.77,15,13.77Z"/>
    <path class="cls-6"
          d="M33,13.77a14.6,14.6,0,0,1-.58,2.93l-.78,0a3.77,3.77,0,0,0-1.43-3C28.62,12.14,33,13.77,33,13.77Z"/>
    <path class="cls-7"
          d="M33.45,13.86a10,10,0,0,0-2.11-6.32l.27-.31a.48.48,0,0,0-.05-.68L29.87,5.08a.49.49,0,0,0-.68,0l-.26.3A9.32,9.32,0,0,0,25.6,4.21V3.73a.48.48,0,0,0-.48-.48H22.88a.48.48,0,0,0-.48.48v.48a9.32,9.32,0,0,0-3.33,1.22l-.26-.3a.49.49,0,0,0-.68,0L16.44,6.55a.48.48,0,0,0-.05.68l.27.31a10,10,0,0,0-2.11,6.32Z"/>
    <path class="cls-8"
          d="M24,11.25a18.79,18.79,0,0,0-9.74,2.51.23.23,0,0,0,.12.42H33.62a.23.23,0,0,0,.12-.42A18.79,18.79,0,0,0,24,11.25Z"/>
    <path class="cls-9" d="M33.85,30.14l-3-.6-3,14.9a24.32,24.32,0,0,0,9.8-3.84V34.81A4.76,4.76,0,0,0,33.85,30.14Z"/>
    <path class="cls-9" d="M14.15,30.14l3-.6,3,14.9a24.32,24.32,0,0,1-9.8-3.84V34.81A4.76,4.76,0,0,1,14.15,30.14Z"/>
    <path class="cls-5" d="M22.2,31.62l1,1.3V44.74h1.58V32.92l1-1.3L24,29.82Z"/>
</svg>