<?xml version="1.0" encoding="utf-8"?>
<svg version="1.1" xmlns="http://www.w3.org/2000/svg" xmlns:xlink="http://www.w3.org/1999/xlink" x="0px" y="0px" viewBox="0 0 1000 1000" enable-background="new 0 0 1000 1000" xml:space="preserve">
<g>
    <g transform="translate(0.000000,511.000000) scale(0.100000,-0.100000)">
        <path fill="#fff" d="M4701.9,4390.6c-1642.7-271.9-3053.8-513.1-3136.1-536.1c-603.1-170.4-1097.1-559.1-1323-1037.7C154.7,2631.1,116.4,2483.6,103,2273c-38.3-601.2,292.9-1047.3,882.6-1196.6c84.2-21.1,224-44,312.1-51.7l158.9-11.5v-55.5c0-32.5,17.2-145.5,40.2-250.8c229.8-1141.1,1133.4-2140.5,2217.1-2456.4c448-130.2,888.4-134,1275.1-13.4c214.4,67,302.5,114.9,654.8,344.6c36.4,24.9,28.7-11.5-76.6-327.4l-116.8-354.2l-68.9-11.5c-36.4-7.6-160.8-44-277.6-80.4c-543.7-174.2-932.4-451.8-1077.9-771.6c-38.3-86.2-49.8-143.6-57.4-317.8c-13.4-325.5,51.7-503.6,264.2-716.1c300.6-300.6,823.3-520.8,1483.8-626.1c298.7-45.9,987.9-45.9,1292.4,1.9c767.7,120.6,1382.3,423.1,1621.7,802.2c166.6,262.3,164.6,704.6-3.8,970.7c-113,180-337,359.9-622.2,501.6c-128.3,63.2-545.7,208.7-670.1,233.6c-44,9.6-61.3,51.7-241.2,605l-193.4,595.4l595.4,492c1208.1,999.4,1742.3,1460.9,1816.9,1570c120.6,172.3,170.4,379.1,197.2,813.7l13.4,208.7l187.6,124.4c187.6,124.5,189.6,128.3,189.6,202.9c0,160.8-63.2,492.1-134,704.6c-151.3,457.6-373.3,813.7-698.8,1123.9c-363.8,346.5-765.8,528.4-1206.2,549.5C7703.9,4884.5,7411,4838.6,4701.9,4390.6z M8175,4714.1c572.5-160.8,1033.9-568.6,1347.9-1196.6c118.7-237.4,227.9-629.9,252.7-899.9l11.5-134L8098.4,1355.9L6409.7,228.2l-103.4,32.5c-225.9,72.8-448,340.8-1177.5,1437.9c-622.2,932.4-830.9,1192.8-1225.3,1531.7c-371.4,317.8-813.7,578.2-1125.8,658.6c-78.5,21.1-139.8,38.3-134,40.2c5.7,1.9,1146.8,191.5,2536.8,421.2C7960.5,4811.8,7862.9,4800.3,8175,4714.1z M2274.2,3506c82.3-11.5,151.3-23,155.1-26.8c3.8-3.8-65.1-78.5-155.1-168.5c-541.8-547.6-836.7-1254.1-836.7-2012.2v-170.4l-149.3,13.4c-164.7,13.4-390.6,70.8-499.7,126.4c-350.4,178.1-482.5,741-298.7,1269.4c68.9,201,157,333.2,344.6,520.8c139.8,139.8,204.9,191.5,344.6,262.3C1540.9,3504.1,1875.9,3561.5,2274.2,3506z M2722.2,3395c57.4-19.2,164.7-65.1,237.4-103.4l134-67l-76.6-13.4c-371.4-61.3-758.2-220.2-961.1-398.2l-70.8-61.3l38.3,65.1c72.7,126.4,344.6,434.6,463.3,522.7c67,51.7,122.5,91.9,126.4,91.9C2616.9,3431.4,2664.7,3416,2722.2,3395z M3476.5,2975.7c160.8-118.7,708.4-631.8,693.1-649.1c-3.8-3.8-65.1,32.6-135.9,80.4c-314,210.6-601.2,304.4-930.5,306.3c-250.8,0-350.4-23-545.7-122.5C1761,2181.1,1648.1,804.5,2323.9-219.8c564.8-855.8,1487.6-1231.1,2196-892.2c206.8,99.6,425,319.7,534.2,541.8c101.5,210.6,155.1,419.3,168.5,670.1c17.2,333.1-51.7,729.5-183.8,1049.2c-30.6,74.7-55.5,137.9-51.7,137.9c3.8,0,80.4-97.6,170.4-214.4c90-118.7,214.4-277.6,279.5-354.2C5550,582.4,5552,578.6,5574.9,412c47.9-365.7-19.2-809.9-170.4-1108.5c-91.9-180-141.7-248.9-287.2-398.2c-497.8-509.3-1223.4-591.6-1956.7-222.1c-647.1,327.4-1185.1,968.8-1434,1713.6c-312.1,938.2-124.4,1939.5,444.2,2356.9c283.4,210.6,673.9,346.5,999.4,350.4l134,1.9L3476.5,2975.7z M3534,2550.6c296.8-93.8,555.2-256.6,800.3-507.4c685.4-696.9,953.5-1797.8,601.2-2469.8c-84.3-160.8-279.5-352.3-434.6-427c-482.5-227.8-1097.1-51.7-1604.4,459.5c-183.8,187.6-277.6,308.2-415.5,541.8c-174.2,296.8-279.5,580.1-325.5,890.3c-120.6,783.1,183.8,1395.7,762,1543.2C3061.1,2617.6,3367.4,2602.3,3534,2550.6z M2404.4,2376.4c-250.8-277.6-371.4-656.7-348.5-1099c26.8-538,216.4-1026.2,578.2-1493.4c471-606.9,1144.9-917.1,1690.6-779.2c88.1,23,208.7,68.9,268,103.4c137.9,78.5,306.3,245.1,382.9,379.1c68.9,118.7,82.3,114.9,21.1-5.7c-365.7-725.6-1221.5-853.9-2006.5-300.6c-913.3,645.2-1311.5,2065.9-821.4,2927.4c51.7,90,271.9,346.5,296.8,346.5C2471.4,2454.9,2444.6,2420.4,2404.4,2376.4z M9392.6,1920.7l-13.4-153.2l-45.9,30.6c-28.7,17.2-67,24.9-99.6,19.1c-57.4-11.5-2416.2-1585.3-2439.2-1625.5c-7.6-13.4-34.5-101.5-63.2-197.2c-26.8-93.8-91.9-260.4-145.5-365.7c-91.9-189.6-99.6-199.1-291-354.2c-107.2-88.1-245.1-206.8-308.3-266.1l-111-105.3l107.2,143.6c201,264.2,356.1,641.4,388.7,943.9c5.7,63.2,21.1,109.2,34.5,109.2c11.5,0,689.3,448,1504.9,993.7c815.6,545.7,1485.7,989.9,1489.6,986C9404.1,2077.7,9400.3,2005,9392.6,1920.7z M9317.9,1641.2c36.4-90,34.5-139.8-15.3-271.9c-68.9-185.7-285.3-381-1882-1702.1C7053-639.1,6723.7-907.1,6691.1-932c-44-32.5-95.7-46-181.9-53.6c-187.6-11.5-191.5,1.9-49.8,191.5c151.3,199.1,298.7,488.2,379.1,742.9l61.3,191.5l1169.8,783.1c643.3,430.8,1181.3,785,1194.7,785S9302.6,1677.6,9317.9,1641.2z M5919.6,258.9c63.2-42.1,166.6-93.8,227.8-113c113-34.5,114.9-34.5,114.9-105.3c0-38.3-21.1-153.2-47.9-256.6c-113-449.9-386.8-830.9-802.2-1118.1c-256.6-176.2-476.7-270-756.3-317.8c-145.5-26.8-518.9-40.2-497.8-21.1c5.7,5.7,68.9,19.1,141.7,30.6c652.9,103.4,1166,582,1344,1256c42.1,164.6,49.8,231.7,51.7,497.8l1.9,310.2l53.6-42.1C5781.7,358.4,5856.4,302.9,5919.6,258.9z M6472.9-1094.8c139.8-1.9,174.2,5.7,243.2,44c45.9,26.8,86.2,44,90,38.3c3.8-3.8,90-262.3,189.5-572.5c363.8-1121.9,467.2-1491.5,446.1-1579.5c-21-86.2-160.8-216.3-306.3-287.2c-545.7-268-1455.1-189.6-1772.9,155.1c-40.2,44.1-80.4,103.4-88.1,130.2c-19.2,78.5,51.7,329.3,323.6,1144.9l252.7,756.3l143.6,124.5l143.6,124.4l86.2-38.3C6287.1-1083.3,6352.2-1094.8,6472.9-1094.8z M5391.1-2268.4c-36.4-97.6-204.9-660.5-224-754.3c-32.5-155.1-1.9-245.1,124.5-369.5c120.6-120.6,294.9-206.8,543.8-273.8c168.5-45.9,222.1-49.8,522.7-49.8s354.2,3.8,522.7,49.8c224,59.4,405.9,145.5,520.8,247c90,80.4,162.7,208.7,162.7,291c0,59.3-70.8,346.5-141.7,570.5c-44,145.5-44,147.4-7.6,181.9c23,21.1,34.5,49.8,28.7,76.6c-3.8,24.9-5.7,44-3.8,44c3.8,0,93.8-30.6,202.9-68.9c469.1-162.7,786.9-388.7,928.6-660.5c46-88.1,55.5-126.4,55.5-256.6s-9.6-168.5-55.5-256.6c-400.1-767.7-2207.5-1110.5-3496-662.4c-471,164.6-788.8,390.6-930.5,662.4c-45.9,88.1-55.5,126.4-55.5,256.6s9.6,168.5,55.5,256.6c145.5,279.5,472.9,507.4,966.9,673.9C5364.3-2226.3,5412.2-2218.6,5391.1-2268.4z"/>
        <path fill="#fff" d="M3338.7,2093c-181.9-61.3-310.2-193.4-390.6-402.1c-57.4-141.7-61.3-484.4-11.5-672c137.9-511.2,564.8-966.9,984.1-1053c484.4-101.5,844.3,270,804.1,832.9c-28.7,384.8-199.1,735.2-494,1014.7C3945.6,2083.5,3612.5,2188.8,3338.7,2093z"/>
        <path fill="#fff" d="M4703.8-2503.9c-68.9-21.1-145.5-91.9-145.5-134c0-88.1,176.1-162.7,346.5-147.4c231.7,21.1,325.5,158.9,168.5,250.8C5004.4-2492.4,4789.9-2475.2,4703.8-2503.9z"/>
        <path fill="#fff" d="M7905-3329.1c-88.1-24.9-168.5-97.7-168.5-151.3c0-101.5,201-185.7,392.5-166.6c381,38.3,356.1,314-28.7,331.2C8031.4-3311.9,7943.3-3319.5,7905-3329.1z"/>
        <path fill="#fff" d="M5391.1-3738.8c-9.6-3.8-42.1-11.5-70.8-17.2c-72.8-17.2-168.5-103.4-168.5-153.2c0-91.9,176.2-183.8,354.2-183.8c176.1,0,354.2,91.9,354.2,181.9c0,91.9-181.9,183.8-361.9,180C5450.5-3731.2,5402.6-3735,5391.1-3738.8z"/>
    </g>
</g>
</svg>