<svg width="1408" height="999" viewBox="0 0 1408 999" version="1.1" xmlns="http://www.w3.org/2000/svg" xmlns:xlink="http://www.w3.org/1999/xlink"><g id="Page-1" stroke="none" stroke-width="1" fill="none" fill-rule="evenodd" opacity=".15"><g id="Artboard-4" fill="#FFF"><g id="Group-34"><circle id="Oval-6" opacity=".85" transform="translate(1316.500000, 977.500000) rotate(-312.000000) translate(-1316.500000, -977.500000)" cx="1316.5" cy="977.5" r="1.5"/><circle id="Oval-6" opacity=".92" transform="translate(1313.000000, 485.000000) rotate(-80.000000) translate(-1313.000000, -485.000000)" cx="1313" cy="485" r="2"/><circle id="Oval-6" opacity=".73" transform="translate(1165.500000, 765.500000) rotate(-124.000000) translate(-1165.500000, -765.500000)" cx="1165.5" cy="765.5" r="1.5"/><circle id="Oval-6" opacity=".75" transform="translate(1243.000000, 674.000000) rotate(-346.000000) translate(-1243.000000, -674.000000)" cx="1243" cy="674" r="2"/><circle id="Oval-6" opacity=".75" transform="translate(1267.000000, 321.000000) rotate(-41.000000) translate(-1267.000000, -321.000000)" cx="1267" cy="321" r="2"/><circle id="Oval-6" opacity=".87" transform="translate(1212.500000, 115.500000) rotate(-66.000000) translate(-1212.500000, -115.500000)" cx="1212.5" cy="115.5" r="1.5"/><circle id="Oval-6" opacity=".78" transform="translate(1225.500000, 54.500000) rotate(-173.000000) translate(-1225.500000, -54.500000)" cx="1225.5" cy="54.5" r="1.5"/><circle id="Oval-6" opacity=".99" transform="translate(1072.500000, 896.500000) rotate(-348.000000) translate(-1072.500000, -896.500000)" cx="1072.5" cy="896.5" r="1.5"/><circle id="Oval-6" opacity=".71" transform="translate(1034.500000, 623.500000) rotate(-266.000000) translate(-1034.500000, -623.500000)" cx="1034.5" cy="623.5" r="1.5"/><circle id="Oval-6" opacity=".78" transform="translate(1034.500000, 384.500000) rotate(-24.000000) translate(-1034.500000, -384.500000)" cx="1034.5" cy="384.5" r="1.5"/><circle id="Oval-6" opacity=".86" transform="translate(1060.500000, 239.500000) rotate(-327.000000) translate(-1060.500000, -239.500000)" cx="1060.5" cy="239.5" r="1.5"/><circle id="Oval-6" transform="translate(978.500000, 780.500000) rotate(-320.000000) translate(-978.500000, -780.500000)" cx="978.5" cy="780.5" r="1.5"/><circle id="Oval-6" opacity=".91" transform="translate(958.000000, 624.000000) rotate(-341.000000) translate(-958.000000, -624.000000)" cx="958" cy="624" r="2"/><circle id="Oval-6" opacity=".92" transform="translate(929.500000, 536.500000) rotate(-249.000000) translate(-929.500000, -536.500000)" cx="929.5" cy="536.5" r="1.5"/><circle id="Oval-6" opacity=".98" transform="translate(960.500000, 324.500000) rotate(-43.000000) translate(-960.500000, -324.500000)" cx="960.5" cy="324.5" r="1.5"/><circle id="Oval-6" opacity=".96" transform="translate(951.500000, 225.500000) rotate(-207.000000) translate(-951.500000, -225.500000)" cx="951.5" cy="225.5" r="1.5"/><circle id="Oval-6" opacity=".73" transform="translate(748.000000, 653.000000) rotate(-166.000000) translate(-748.000000, -653.000000)" cx="748" cy="653" r="2"/><circle id="Oval-6" opacity=".91" transform="translate(736.000000, 550.000000) rotate(-302.000000) translate(-736.000000, -550.000000)" cx="736" cy="550" r="2"/><circle id="Oval-6" opacity=".94" transform="translate(716.000000, 416.000000) rotate(-80.000000) translate(-716.000000, -416.000000)" cx="716" cy="416" r="2"/><circle id="Oval-6" transform="translate(729.000000, 369.000000) rotate(-357.000000) translate(-729.000000, -369.000000)" cx="729" cy="369" r="2"/><circle id="Oval-6" opacity=".85" transform="translate(750.500000, 175.500000) rotate(-103.000000) translate(-750.500000, -175.500000)" cx="750.5" cy="175.5" r="1.5"/><circle id="Oval-6" opacity=".99" transform="translate(572.000000, 967.000000) rotate(-40.000000) translate(-572.000000, -967.000000)" cx="572" cy="967" r="2"/><circle id="Oval-6" opacity=".73" transform="translate(638.500000, 617.500000) rotate(-140.000000) translate(-638.500000, -617.500000)" cx="638.5" cy="617.5" r="1.5"/><circle id="Oval-6" opacity=".77" transform="translate(449.500000, 968.500000) rotate(-121.000000) translate(-449.500000, -968.500000)" cx="449.5" cy="968.5" r="1.5"/><circle id="Oval-6" opacity=".9" transform="translate(482.000000, 756.000000) rotate(-350.000000) translate(-482.000000, -756.000000)" cx="482" cy="756" r="2"/><circle id="Oval-6" opacity=".94" transform="translate(494.000000, 669.000000) rotate(-179.000000) translate(-494.000000, -669.000000)" cx="494" cy="669" r="2"/><circle id="Oval-6" opacity=".99" transform="translate(508.000000, 553.000000) rotate(-163.000000) translate(-508.000000, -553.000000)" cx="508" cy="553" r="2"/><circle id="Oval-6" opacity=".7" transform="translate(516.000000, 238.000000) rotate(-234.000000) translate(-516.000000, -238.000000)" cx="516" cy="238" r="2"/><circle id="Oval-6" opacity=".88" transform="translate(405.000000, 873.000000) rotate(-180.000000) translate(-405.000000, -873.000000)" cx="405" cy="873" r="2"/><circle id="Oval-6" opacity=".96" transform="translate(346.000000, 128.000000) rotate(-230.000000) translate(-346.000000, -128.000000)" cx="346" cy="128" r="2"/><circle id="Oval-6" opacity=".82" transform="translate(201.000000, 819.000000) rotate(-343.000000) translate(-201.000000, -819.000000)" cx="201" cy="819" r="2"/><circle id="Oval-6" opacity=".7" transform="translate(211.000000, 523.000000) rotate(-188.000000) translate(-211.000000, -523.000000)" cx="211" cy="523" r="2"/><circle id="Oval-6" opacity=".99" transform="translate(210.500000, 438.500000) rotate(-282.000000) translate(-210.500000, -438.500000)" cx="210.5" cy="438.5" r="1.5"/><circle id="Oval-6" opacity=".73" transform="translate(157.500000, 57.500000) rotate(-195.000000) translate(-157.500000, -57.500000)" cx="157.5" cy="57.5" r="1.5"/><circle id="Oval-6" opacity=".76" transform="translate(95.000000, 990.000000) rotate(-159.000000) translate(-95.000000, -990.000000)" cx="95" cy="990" r="2"/><circle id="Oval-6" opacity=".84" transform="translate(42.500000, 433.500000) rotate(-162.000000) translate(-42.500000, -433.500000)" cx="42.5" cy="433.5" r="1.5"/><circle id="Oval-6" opacity=".74" transform="translate(81.500000, 380.500000) rotate(-14.000000) translate(-81.500000, -380.500000)" cx="81.5" cy="380.5" r="1.5"/><circle id="Oval-6" opacity=".88" transform="translate(29.500000, 160.500000) rotate(-44.000000) translate(-29.500000, -160.500000)" cx="29.5" cy="160.5" r="1.5"/><rect id="Rectangle-7" opacity=".87" transform="translate(1379.500000, 828.500000) rotate(-31.000000) translate(-1379.500000, -828.500000)" x="1378" y="827" width="3" height="3"/><rect id="Rectangle-7" opacity=".88" transform="translate(1405.500000, 584.500000) rotate(-319.000000) translate(-1405.500000, -584.500000)" x="1404" y="583" width="3" height="3"/><rect id="Rectangle-7" opacity=".78" transform="translate(1401.000000, 221.000000) rotate(-204.000000) translate(-1401.000000, -221.000000)" x="1400" y="220" width="2" height="2"/><rect id="Rectangle-7" opacity=".98" transform="translate(1336.500000, 128.500000) rotate(-197.000000) translate(-1336.500000, -128.500000)" x="1335" y="127" width="3" height="3"/><rect id="Rectangle-7" transform="translate(1213.500000, 966.500000) rotate(-7.000000) translate(-1213.500000, -966.500000)" x="1212" y="965" width="3" height="3"/><rect id="Rectangle-7" opacity=".81" transform="translate(1179.500000, 529.500000) rotate(-34.000000) translate(-1179.500000, -529.500000)" x="1178" y="528" width="3" height="3"/><rect id="Rectangle-7" opacity=".76" transform="translate(1211.500000, 460.500000) rotate(-197.000000) translate(-1211.500000, -460.500000)" x="1210" y="459" width="3" height="3"/><rect id="Rectangle-7" opacity=".79" transform="translate(1242.500000, 265.500000) rotate(-88.000000) translate(-1242.500000, -265.500000)" x="1241" y="264" width="3" height="3"/><rect id="Rectangle-7" opacity=".75" transform="translate(1124.000000, 997.000000) rotate(-355.000000) translate(-1124.000000, -997.000000)" x="1123" y="996" width="2" height="2"/><rect id="Rectangle-7" opacity=".73" transform="translate(1090.500000, 584.500000) rotate(-168.000000) translate(-1090.500000, -584.500000)" x="1089" y="583" width="3" height="3"/><rect id="Rectangle-7" opacity=".77" transform="translate(1117.000000, 433.000000) rotate(-28.000000) translate(-1117.000000, -433.000000)" x="1116" y="432" width="2" height="2"/><rect id="Rectangle-7" opacity=".97" transform="translate(1023.500000, 143.500000) rotate(-105.000000) translate(-1023.500000, -143.500000)" x="1022" y="142" width="3" height="3"/><rect id="Rectangle-7" opacity=".78" transform="translate(1039.500000, 47.500000) rotate(-262.000000) translate(-1039.500000, -47.500000)" x="1038" y="46" width="3" height="3"/><rect id="Rectangle-7" opacity=".98" transform="translate(880.000000, 862.000000) rotate(-228.000000) translate(-880.000000, -862.000000)" x="879" y="861" width="2" height="2"/><rect id="Rectangle-7" opacity=".91" transform="translate(932.000000, 476.000000) rotate(-179.000000) translate(-932.000000, -476.000000)" x="931" y="475" width="2" height="2"/><rect id="Rectangle-7" opacity=".88" transform="translate(755.500000, 844.500000) rotate(-222.000000) translate(-755.500000, -844.500000)" x="754" y="843" width="3" height="3"/><rect id="Rectangle-7" opacity=".87" transform="translate(585.500000, 747.500000) rotate(-115.000000) translate(-585.500000, -747.500000)" x="584" y="746" width="3" height="3"/><rect id="Rectangle-7" opacity=".85" transform="translate(656.000000, 578.000000) rotate(-240.000000) translate(-656.000000, -578.000000)" x="655" y="577" width="2" height="2"/><rect id="Rectangle-7" opacity=".75" transform="translate(606.000000, 359.000000) rotate(-13.000000) translate(-606.000000, -359.000000)" x="605" y="358" width="2" height="2"/><rect id="Rectangle-7" opacity=".75" transform="translate(547.000000, 819.000000) rotate(-41.000000) translate(-547.000000, -819.000000)" x="546" y="818" width="2" height="2"/><rect id="Rectangle-7" opacity=".81" transform="translate(429.500000, 456.500000) rotate(-302.000000) translate(-429.500000, -456.500000)" x="428" y="455" width="3" height="3"/><rect id="Rectangle-7" opacity=".99" transform="translate(441.000000, 319.000000) rotate(-279.000000) translate(-441.000000, -319.000000)" x="440" y="318" width="2" height="2"/><rect id="Rectangle-7" opacity=".89" transform="translate(458.500000, 78.500000) rotate(-166.000000) translate(-458.500000, -78.500000)" x="457" y="77" width="3" height="3"/><rect id="Rectangle-7" opacity=".83" transform="translate(329.000000, 962.000000) rotate(-230.000000) translate(-329.000000, -962.000000)" x="328" y="961" width="2" height="2"/><rect id="Rectangle-7" opacity=".73" transform="translate(337.000000, 769.000000) rotate(-86.000000) translate(-337.000000, -769.000000)" x="336" y="768" width="2" height="2"/><rect id="Rectangle-7" transform="translate(284.000000, 661.000000) rotate(-99.000000) translate(-284.000000, -661.000000)" x="283" y="660" width="2" height="2"/><rect id="Rectangle-7" opacity=".77" transform="translate(375.500000, 458.500000) rotate(-162.000000) translate(-375.500000, -458.500000)" x="374" y="457" width="3" height="3"/><rect id="Rectangle-7" opacity=".88" transform="translate(393.000000, 77.000000) rotate(-318.000000) translate(-393.000000, -77.000000)" x="392" y="76" width="2" height="2"/><rect id="Rectangle-7" opacity=".78" transform="translate(158.500000, 743.500000) rotate(-314.000000) translate(-158.500000, -743.500000)" x="157" y="742" width="3" height="3"/><rect id="Rectangle-7" opacity=".93" transform="translate(187.500000, 667.500000) rotate(-53.000000) translate(-187.500000, -667.500000)" x="186" y="666" width="3" height="3"/><rect id="Rectangle-7" opacity=".84" transform="translate(207.500000, 372.500000) rotate(-59.000000) translate(-207.500000, -372.500000)" x="206" y="371" width="3" height="3"/><rect id="Rectangle-7" opacity=".99" transform="translate(161.000000, 270.000000) rotate(-24.000000) translate(-161.000000, -270.000000)" x="160" y="269" width="2" height="2"/><rect id="Rectangle-7" opacity=".452" transform="translate(127.500000, 131.500000) rotate(-148.000000) translate(-127.500000, -131.500000)" x="126" y="130" width="3" height="3"/><rect id="Rectangle-7" opacity=".99" transform="translate(72.000000, 795.000000) rotate(-112.000000) translate(-72.000000, -795.000000)" x="71" y="794" width="2" height="2"/><rect id="Rectangle-7" opacity=".74" transform="translate(95.500000, 694.500000) rotate(-75.000000) translate(-95.500000, -694.500000)" x="94" y="693" width="3" height="3"/><rect id="Rectangle-7" opacity=".99" transform="translate(13.500000, 266.500000) rotate(-304.000000) translate(-13.500000, -266.500000)" x="12" y="265" width="3" height="3"/><rect id="Rectangle-7" opacity=".71" transform="translate(2.500000, 19.500000) rotate(-58.000000) translate(-2.500000, -19.500000)" x="1" y="18" width="3" height="3"/><polygon id="Rectangle-7-Copy-2" opacity=".7" transform="translate(1301.000000, 781.000000) rotate(-304.000000) translate(-1301.000000, -781.000000)" points="1299 779 1303 783 1299 783"/><polygon id="Rectangle-7-Copy-2" opacity=".96" transform="translate(1347.500000, 686.500000) rotate(-243.000000) translate(-1347.500000, -686.500000)" points="1346 685 1349 688 1346 688"/><polygon id="Rectangle-7-Copy-2" opacity=".8" transform="translate(1346.000000, 378.000000) rotate(-10.000000) translate(-1346.000000, -378.000000)" points="1344 376 1348 380 1344 380"/><polygon id="Rectangle-7-Copy-2" opacity=".82" transform="translate(1318.000000, 3.000000) rotate(-106.000000) translate(-1318.000000, -3.000000)" points="1316 1 1320 5 1316 5"/><polygon id="Rectangle-7-Copy-2" opacity=".72" transform="translate(1261.500000, 897.500000) rotate(-230.000000) translate(-1261.500000, -897.500000)" points="1260 896 1263 899 1260 899"/><polygon id="Rectangle-7-Copy-2" opacity=".84" transform="translate(1079.000000, 785.000000) rotate(-32.000000) translate(-1079.000000, -785.000000)" points="1077 783 1081 787 1077 787"/><polygon id="Rectangle-7-Copy-2" transform="translate(950.000000, 937.000000) rotate(-302.000000) translate(-950.000000, -937.000000)" points="948 935 952 939 948 939"/><polygon id="Rectangle-7-Copy-2" opacity=".83" transform="translate(938.000000, 142.000000) rotate(-152.000000) translate(-938.000000, -142.000000)" points="936 140 940 144 936 144"/><polygon id="Rectangle-7-Copy-2" opacity=".71" transform="translate(873.000000, 8.000000) rotate(-57.000000) translate(-873.000000, -8.000000)" points="871 6 875 10 871 10"/><polygon id="Rectangle-7-Copy-2" opacity=".98" transform="translate(822.500000, 980.500000) rotate(-134.000000) translate(-822.500000, -980.500000)" points="821 979 824 982 821 982"/><polygon id="Rectangle-7-Copy-2" opacity=".76" transform="translate(800.000000, 780.000000) rotate(-317.000000) translate(-800.000000, -780.000000)" points="798 778 802 782 798 782"/><polygon id="Rectangle-7-Copy-2" opacity=".78" transform="translate(729.500000, 257.500000) rotate(-277.000000) translate(-729.500000, -257.500000)" points="728 256 731 259 728 259"/><polygon id="Rectangle-7-Copy-2" opacity=".79" transform="translate(737.000000, 10.000000) rotate(-79.000000) translate(-737.000000, -10.000000)" points="735 8 739 12 735 12"/><polygon id="Rectangle-7-Copy-2" opacity=".81" transform="translate(644.500000, 841.500000) rotate(-253.000000) translate(-644.500000, -841.500000)" points="643 840 646 843 643 843"/><polygon id="Rectangle-7-Copy-2" opacity=".75" transform="translate(589.000000, 467.000000) rotate(-15.000000) translate(-589.000000, -467.000000)" points="587 465 591 469 587 469"/><polygon id="Rectangle-7-Copy-2" opacity=".8" transform="translate(575.000000, 211.000000) rotate(-43.000000) translate(-575.000000, -211.000000)" points="573 209 577 213 573 213"/><polygon id="Rectangle-7-Copy-2" opacity=".7" transform="translate(646.000000, 150.000000) rotate(-24.000000) translate(-646.000000, -150.000000)" points="644 148 648 152 644 152"/><polygon id="Rectangle-7-Copy-2" opacity=".97" transform="translate(685.500000, 55.500000) rotate(-79.000000) translate(-685.500000, -55.500000)" points="684 54 687 57 684 57"/><polygon id="Rectangle-7-Copy-2" opacity=".77" transform="translate(530.000000, 170.000000) rotate(-341.000000) translate(-530.000000, -170.000000)" points="528 168 532 172 528 172"/><polygon id="Rectangle-7-Copy-2" transform="translate(368.500000, 568.500000) rotate(-9.000000) translate(-368.500000, -568.500000)" points="367 567 370 570 367 570"/><polygon id="Rectangle-7-Copy-2" opacity=".95" transform="translate(325.500000, 359.500000) rotate(-335.000000) translate(-325.500000, -359.500000)" points="324 358 327 361 324 361"/><polygon id="Rectangle-7-Copy-2" opacity=".86" transform="translate(355.000000, 275.000000) rotate(-35.000000) translate(-355.000000, -275.000000)" points="353 273 357 277 353 277"/><polygon id="Rectangle-7-Copy-2" transform="translate(241.500000, 951.500000) rotate(-56.000000) translate(-241.500000, -951.500000)" points="240 950 243 953 240 953"/><polygon id="Rectangle-7-Copy-2" opacity=".71" transform="translate(79.000000, 871.000000) rotate(-225.000000) translate(-79.000000, -871.000000)" points="77 869 81 873 77 873"/><polygon id="Rectangle-7-Copy-2" opacity=".94" transform="translate(47.500000, 520.500000) rotate(-272.000000) translate(-47.500000, -520.500000)" points="46 519 49 522 46 522"/></g></g></g></svg>