<?xml version="1.0" encoding="UTF-8" standalone="no"?>
<svg width="1020" xmlns="http://www.w3.org/2000/svg" height="550">
 <path fill="#fecb31" d="m795.09 111.25c45.15-34.85 90.09-69.97 134.54-105.7 0.32001 50.6-0.25 101.22 0.28998 151.81 0.82001 8.85 0.33002 17.74 0.45001 26.62 0 19.34-0.02997 38.69 0.03998 58.03 0.18005 2.27-0.67999 4.46-2.66 5.67-52.09 35.45-104.23 70.84-156.25 106.39 65.73-20.97 131.23-42.71 196.92-63.83 1.15-0.64999 3.06-0.84998 3.51-2.29-0.51001-43.46 0.04999-86.99-0.23999-130.48 15.06 0.27 30.13 0.12 45.19 0.08 0.88 12.44 0.15997 24.95 0.40002 37.42 0 60.59-0.01001 121.18 0.00995 181.77-83.76 0.18002-167.52 0.01001-251.28 0.09-6.43 0.02002-13.32-0.31998-18.77-4.14-5.32-3.25-9.17-8.54-11.48-14.25-1.92-4.58-1.3-9.63-1.38-14.45 0.02002-54 0.01001-108 0.01001-162 0.66998-10.27 4.61-20.39 11.37-28.19 13.65-17.19 32.28-29.12 49.33-42.55z"/>
 <path fill="#e92730" d="m118.56 113.2c3.69-1.23 7.61-0.86 11.42-0.88 4.88 0.05 9.78-0.19 14.64 0.37-0.15999 1.64-0.28999 3.31-0.87999 4.87-19.04 51.49-37.84 103.07-56.6 154.66-0.72 1.84-0.69 3.84-0.71 5.79 0.11 26.24-0.05 52.48 0.09 78.71-2.09 0.69-4.28 0.92999-6.47 0.85999-5.54-0.09-11.09 0.14001-16.62-0.28-0.38-27.81-0.06-55.64-0.16-83.45-16.64-42.59-32.95-85.31-49.12-128.08-1.31-3.58-3.3-7.13-2.78-11.08 6.52-0.78 13.11-0.28 19.66-0.45 2.14-0.16 4.24 0.31 6.11 1.36 9.13 27.1 18.89 53.98 28.3 80.98 3.79 10.4 7.47 20.83 11.52 31.13 3.5-14.64 7.42-29.2 12.23-43.47 9.67-30.38 19.7-60.66 29.37-91.04z"/>
 <path fill="#ffffff" d="m412.48 134.58c6.77-0.64 13.61-0.28 20.41-0.29001 1.35-0.23 2.84 0.92001 2.43 2.42 0.00998 73.16-0.03 146.32 0.01999 219.48-0.53 0.34-1.59 1.01-2.12 1.35-4.07-0.19-8.26 0.47998-12.24-0.45001-2.24-2.19-3.43-5.19-5-7.85-8.67 7.62-20 13.84-31.92 11.69-9.44-0.87-17.7-6.31-24.12-13-3.48-3.76-5.75-8.42-8.21-12.87-0.91-2.04-1.81-4.09-2.69-6.14-0.35001-0.99002-0.71002-1.98-1.06-2.96-0.31-1.03-0.61002-2.06-0.91-3.09-0.35001-1.33-0.66-2.69-0.97-4.02-0.42001-1.63-0.70001-3.28-1-4.93-2.52-11.12-1.84-22.58-1.86-33.89-0.06-8.4 1.16-16.75 2.81-24.97 0.31-1.66 0.60001-3.32 1-4.96 0.35001-1.31 0.69-2.63 1.07-3.94 0.30002-1.02 0.63-2.03 0.97-3.04 0.5-1.42 1.02-2.82 1.53-4.24 1.04-2.31 2.08-4.62 3.16-6.92 1.1-2 2.19-3.99 3.25-6.01 3.96-6.94 10.39-11.89 16.9-16.27 9.81-5.02 25.087-5.3364 39.617-0.33638 0.53 0.175 1.2426 15.258-1.3173 20.704-6.0067-3.8224-14.059-8.5543-23.27-5.4231-26.484 8.2222-32.309 109.94 1.5945 116.48 0.53299 0.17102 12.703 2.1569 21.784-3.8599-0.37411-6.5614-0.01984-118.76-0.02728-128.24 0.14999-24.81-0.17999-49.62 0.17001-74.43z"/>
 <path fill="#020202" d="m854.91 155.37c5.07-6.81 12.36-12.88 21.1-13.77 3.67-0.52 7.7 0.01999 10.7 2.35 12.912 8.7252-0.92004 32.65-10.62 38.99-4.78 3.73-11.12 5.07-17.06 4.47-5.4-0.75-9.02-5.75-10.44-10.65-1.15-7.63 1.9-15.29 6.32-21.39z"/>
 <path fill="#cca74d" d="m929.92 157.36c13.92 0.12 27.85-0.08 41.77 0.11 0.28998 43.49-0.27002 87.02 0.23999 130.48-0.45001 1.44-2.36 1.64-3.51 2.29-65.69 21.12-131.19 42.86-196.92 63.83 52.02-35.55 104.16-70.94 156.25-106.39 1.98-1.21 2.84-3.4 2.66-5.67-0.06995-19.34-0.03998-38.69-0.03998-58.03-0.12-8.88 0.37-17.77-0.45001-26.62z"/>
 <path fill="#ffffff" d="m149.74 207.77c6.6-2.03 13.49-2.5 20.32-3.11 3.52 0.58 7.13 0.62999 10.55 1.72 8.11 2.11 14.69 7.91 19.67 14.44 0.48 1.09 0.97 2.17 1.46 3.25 0.73 1.66 1.4 3.34 2.03 5.04 0.45 1.28 0.86 2.57 1.28 3.86 0.34 1.33 0.67999 2.68 1.1 4 0.20001 1.37 0.37001 2.75 0.54001 4.13 1.13 4.88 0.44 9.95 1.49 14.84 0.36 33.07 0.08 66.15 0.15001 99.23 0.25 1.75-1.87 2.49-3.28 2.35-3.76 0.11002-7.53 0.06-11.28-0.16998-0.74001-1.39-1.44-2.79-2.11-4.21-0.85001-2.14-1.74-4.25-2.62-6.38-6.33 6.81-14.32 12.83-23.77 14.13-8.6 1.61-17.6-1.37-24.18-6.97-6.56-4.91-10.13-12.52-13.45-19.78-0.48-1.46-1-2.9-1.48-4.34-0.42001-1.3-0.79-2.6-1.2-3.88-0.36-1.67-0.6-3.36-0.87-5.04-0.95-6.53-0.81-13.26-0.1-19.81 0.64-4.88 2.05-9.6 3.7-14.21 3.45-8.04 7.62-16.22 15.05-21.31 12.01-9.63 29.47-8.78 42.58-1.86 0.02199-1.065 0.04099 20.315 0.05299 19.25 2.281 1.178-17.091-11.186-27.211-3.2995-10.342 9.6646-10.319 28.247-10.138 34.869 0.18199 6.623 4.523 26.398 18.374 27.34 14.073 0.05319 18.767-8.5039 18.766-8.7699-0.008-2.128 0.166-80.034 0.056-82.159-0.78-3.63-1.24-7.33-2.17-10.93-0.3-1.06-0.58-2.12-0.85001-3.18-1.66-4.82-4.57-9.56-9.2-12-5.14-2.49-11-0.98-15.97 1.14-0.49001 0.29001-1.45 0.87001-1.93 1.17-1.05 0.5-2.09 1.02-3.13 1.55-3.57 1.53-6.97 6.19-11.06 3.64-0.85001-2.16-1.79-4.28-2.76-6.39-1.59-3.89-4.3-7.48-4.64-11.76 0.62001-0.37001 1.85-1.1 2.46-1.46 4.24-1.96 8.66-3.52 13.19-4.64l0.58-0.28999z"/>
 <path fill="#ffffff" d="m484.29 211.87c9.51-7.35 23.12-8.44 33.89-3.26 4.56 2.93 8.71 6.53 12.06 10.81 2.75 3.88 4.63 8.3 6.59 12.63 1.28 3.23 2.26 6.58 3.27 9.91 0.28003 1.66 0.57001 3.33 1.02 4.96 0.28003 2 0.53998 4.02 1.07 5.98 1.7 11.68 1.4 23.5 1.38 35.29-5.087-0.09-50 1.022-61.461-1.4826-1.2743 0.01025-8.5032-10.171-2.3911-13.814-1.1607-2.5513 34.474-4.0176 40.2-2.9402 0.36017-43.482-13.825-45.879-16.372-45.885-13.095-1.4676-19.823 22.63-19.995 47.472 3.2817 1.9327 3.1187 8.0637-1.0301 15.03 0.10001 6.11-0.57999 12.29 0.53 18.35 0.29001 1.67 0.54001 3.36 0.90002 5.03 0.38998 1.29 0.75 2.61 1.15 3.92 0.31 1.01 0.63998 2.02 0.97998 3.03 0.85001 2.08 1.72 4.14 2.57 6.22 3.33 7.69 10.29 13.75 18.38 15.94 10.29 2.66 20.8-0.45999 31.08-1.55 0.35004 1.11 0.71002 2.21 1.08 3.32 0.23999 1.36 0.48999 2.73 0.79999 4.09 0.47003 1.43 0.90002 2.87 1.36 4.31-0.23999 0.51999-0.72998 1.55-0.96997 2.07-8.55 4.62-17.78 8.5-27.59 9.04-10.87 1.5-22.26-1.32-30.84-8.24-6.98-4.58-11.4-11.83-15.24-19.03-0.23999-0.5-0.72-1.49-0.95999-1.99-0.69-1.65-1.39-3.29-2.1-4.92-0.54001-1.75-1.11-3.48-1.67-5.22-0.34-1.33-0.64001-2.67-0.97-3.99-1.76-7.53-2.97-15.23-2.78-22.99 0.12997-8.63-0.54001-17.36 0.81-25.92 0.60999-5.37 1.72-10.66 3.08-15.89 0.60001-2.35 1.27-4.69 2.01-7 0.29999-1.02 0.63-2.03 0.95999-3.03 0.35001-0.98999 0.70999-1.98 1.07-2.97 0.59-1.71 1.24-3.39 1.92-5.06 0.66-1.68 1.36-3.35 2.09-5 3.35-6.72 8.48-12.34 14.12-17.22z"/>
 <path fill="#ffffff" d="m269.84 211.59c10.56-5.03 23.03-6.59 34.17-2.57 10.83 3.71 17.23 15.89 16.29 26.96-0.03998 40.05-0.03 80.1 0 120.14-0.53 0.36002-1.58 1.07-2.11 1.42-6.94-0.41-14.1 0.91-20.88-0.81-0.01999-39.62-0.03-79.25 0-118.87-1.93-5.25-5.86-10.1-11.57-11.28-8.85-1.81-18.55-0.02-26.1 5.01 0.09998 37.78 0.00998 75.56 0.03998 113.35-0.03998 4.11 0.14001 8.23-0.19998 12.34-6.9 0.53-13.83 0.17001-20.75 0.23999-0.50999-0.34-1.54-1.04-2.06-1.39 0.08-48.85 0.06-97.71 0.00999-146.56 1.36-0.59001 2.73-1.34 4.28-1.2 6.19 0.06 12.41-0.25999 18.59 0.28 0.16 2.78 0.14001 5.56 0.15002 8.34 2.77-1.35 5.38-2.98 8.13-4.38 0.5-0.25 1.51-0.75999 2.01-1.02z"/>
 <path fill="#ffffff" d="m559.31 210.62c2.86-3.59 7.7-1.93 11.64-2.27 4.12 0.25999 8.52-0.81001 12.4 1.07 1.08 2.9 2.27 5.78 3.31 8.7 0.49005 1.25 0.98004 2.5 1.49 3.75 0.96997 2.67 1.98 5.33 3.04 7.97 1.1 3.11 2.38 6.16 3.48 9.28 0.5 1.24 1 2.49 1.52 3.73 0.47998 1.43 1 2.85 1.51 4.29 0.48999 1.24 0.95996 2.48 1.46 3.73 1.14 3.32 2.3 6.64 3.75 9.84 0.94-2.62 1.9-5.23 2.79-7.86 0.45996-1.26 0.90997-2.51 1.38-3.76 0.33997-1 0.70001-1.98 1.07-2.96 1.43-4.11 2.98-8.17 4.49-12.25 0.48999-1.26 0.96997-2.51 1.49-3.76 0.48999-1.42 1.02-2.82 1.52-4.23 0.48999-1.26 0.98999-2.51 1.51-3.76 0.5-1.42 1.03-2.84 1.54-4.26 0.47998-1.26 0.96997-2.51 1.46-3.77 0.89001-2.15 1.35-5.44 4.28-5.62 5.95-0.14999 11.97-0.39999 17.9 0.14 0.31995 0.23001 0.95996 0.70001 1.29 0.94-0.16998 3.45-2.31 6.36-3.54 9.5-1.46 3.29-2.91 6.58-4.43 9.84-1.29 3.02-2.65 6-4.03 8.98-1.62 3.73-3.31 7.42-5.01 11.11-1.46 3.38-3.02 6.71-4.53 10.06-1.48 3.28-2.92 6.58-4.48 9.82-1.69 3.8-3.25 7.67-5.32 11.28 0.17004 2.04 0.99005 3.93 1.79 5.8 1.93 4.35 3.78 8.74 5.63 13.13 1 2.32 2.03 4.64 2.97 7 3.71 8.66 7.38 17.33 11.03 26.01 1.02 2.32 1.99 4.67 2.96 7.01 0.85004 1.93 1.66 3.88 2.49 5.82 1.42 3.43 2.81 6.88 4.43 10.22-0.40002 0.56-1.19 1.69-1.59 2.25-6.04 0.25-12.09 0.16998-18.13 0.09998-1.63 0.05002-2.8-1.26-4.13-1.96-0.29999-1.15-0.60999-2.29-0.92999-3.43-0.58002-1.41-1.14-2.83-1.64-4.26-1.05-2.65-2.04-5.31-3.02-7.98-1.07-2.64-2.04-5.3-3.05-7.96-0.67999-1.68-1.32-3.37-1.91-5.07-0.52002-1.23-1.01-2.47-1.5-3.69-0.5-1.44-1.03-2.86-1.53-4.28-0.37994-0.98999-0.72998-1.97-1.07-2.95-0.47003-1.26-0.92004-2.52-1.39-3.76-1.19-3.67-2.59-7.27-3.62-10.99-0.38 0.04999-1.14 0.13998-1.52 0.17999-0.41998 1.63-0.90997 3.23-1.38 4.84-2.33 6.99-4.59 14-7.02 20.96-0.37 0.97998-0.72998 1.97-1.06 2.96-0.47998 1.25-0.94 2.5-1.4 3.75-0.48999 1.45-1.01 2.88-1.49 4.33-0.38 0.98001-0.74005 1.96-1.08 2.95-0.47998 1.24-0.95001 2.49-1.42 3.74-0.5 1.43-1.01 2.86-1.49 4.31-0.97998 2.47-1.89 4.98-2.96 7.42-6.27 1.87-12.96 0.57001-19.41 0.88998-0.67999-0.39999-2.03-1.22-2.71-1.62 0.32996-1.71 0.88-3.35 1.5-4.96 1.28-2.56 2.32-5.22 3.48-7.83 0.95001-2.36 2.01-4.67 2.99-7.01 0.84003-2.06 1.76-4.08 2.59-6.14 0.96997-2.35 2.06-4.64 2.97-7.01 1.02-2.32 2.04-4.64 2.98-7 0.83997-1.93 1.67-3.86 2.48-5.79 0.84998-2.08 1.75-4.13 2.59-6.2 1.01-2.33 2.01-4.66 2.97-7.01 1.03-2.32 1.98-4.68 2.95-7.03 0.82001-1.94 1.67-3.87 2.53-5.8 1.42-2.88 2.46-6.15 0.72003-9.16-3.46-7.24-6.51-14.67-9.79-22-1.19-2.59-2.24-5.25-3.47-7.82-1.42-3.44-3.03-6.8-4.46-10.23-1.19-2.59-2.27-5.23-3.49-7.8-1.08-2.76-2.43-5.41-3.53-8.16-1.29-2.76-2.4-5.61-3.84-8.3z"/>
</svg>
